<mxfile host="app.diagrams.net" modified="2022-12-11T14:05:34.594Z" agent="5.0 (Windows NT 10.0; Win64; x64) AppleWebKit/537.36 (KHTML, like Gecko) Chrome/108.0.0.0 Safari/537.36 Edg/108.0.1462.46" etag="O4nvEPYjZ278j2N89doA" version="20.6.2" type="github">
  <diagram id="W2HWCewwAggoOsEGd6kA" name="Page-1">
    <mxGraphModel dx="716" dy="394" grid="1" gridSize="10" guides="1" tooltips="1" connect="1" arrows="1" fold="1" page="1" pageScale="1" pageWidth="827" pageHeight="1169" math="1" shadow="0">
      <root>
        <mxCell id="0" />
        <mxCell id="1" parent="0" />
        <mxCell id="4f531_EbP1NzhC4_Dmcq-48" value="" style="rounded=1;whiteSpace=wrap;html=1;" vertex="1" parent="1">
          <mxGeometry x="380" y="633" width="120" height="120" as="geometry" />
        </mxCell>
        <mxCell id="4f531_EbP1NzhC4_Dmcq-56" value="" style="edgeStyle=orthogonalEdgeStyle;rounded=0;orthogonalLoop=1;jettySize=auto;html=1;" edge="1" parent="1" source="4f531_EbP1NzhC4_Dmcq-41">
          <mxGeometry relative="1" as="geometry">
            <mxPoint x="410" y="465" as="targetPoint" />
          </mxGeometry>
        </mxCell>
        <mxCell id="4f531_EbP1NzhC4_Dmcq-67" style="edgeStyle=orthogonalEdgeStyle;rounded=0;orthogonalLoop=1;jettySize=auto;html=1;entryX=1;entryY=0.25;entryDx=0;entryDy=0;fillColor=#f8cecc;strokeColor=#b85450;" edge="1" parent="1" source="4f531_EbP1NzhC4_Dmcq-41" target="4f531_EbP1NzhC4_Dmcq-29">
          <mxGeometry relative="1" as="geometry">
            <Array as="points">
              <mxPoint x="250" y="530" />
              <mxPoint x="250" y="610" />
            </Array>
          </mxGeometry>
        </mxCell>
        <mxCell id="4f531_EbP1NzhC4_Dmcq-41" value="Decoder" style="rounded=1;whiteSpace=wrap;html=1;" vertex="1" parent="1">
          <mxGeometry x="365.5" y="500" width="89" height="61" as="geometry" />
        </mxCell>
        <mxCell id="4f531_EbP1NzhC4_Dmcq-55" style="edgeStyle=orthogonalEdgeStyle;rounded=0;orthogonalLoop=1;jettySize=auto;html=1;entryX=0.5;entryY=1;entryDx=0;entryDy=0;" edge="1" parent="1" source="4f531_EbP1NzhC4_Dmcq-4" target="4f531_EbP1NzhC4_Dmcq-41">
          <mxGeometry relative="1" as="geometry" />
        </mxCell>
        <mxCell id="4f531_EbP1NzhC4_Dmcq-4" value="I(am)(you)" style="text;html=1;strokeColor=none;fillColor=none;align=center;verticalAlign=middle;whiteSpace=wrap;rounded=0;" vertex="1" parent="1">
          <mxGeometry x="380" y="590" width="60" height="30" as="geometry" />
        </mxCell>
        <mxCell id="4f531_EbP1NzhC4_Dmcq-7" value="&lt;div style=&quot;text-align: left;&quot;&gt;&lt;span style=&quot;background-color: initial;&quot;&gt;were&lt;/span&gt;&lt;/div&gt;" style="text;html=1;strokeColor=none;fillColor=none;align=center;verticalAlign=middle;whiteSpace=wrap;rounded=0;" vertex="1" parent="1">
          <mxGeometry x="383.25" y="445" width="53.5" height="19" as="geometry" />
        </mxCell>
        <mxCell id="4f531_EbP1NzhC4_Dmcq-40" style="edgeStyle=orthogonalEdgeStyle;rounded=0;orthogonalLoop=1;jettySize=auto;html=1;entryX=0.5;entryY=1;entryDx=0;entryDy=0;" edge="1" parent="1" source="4f531_EbP1NzhC4_Dmcq-21" target="4f531_EbP1NzhC4_Dmcq-35">
          <mxGeometry relative="1" as="geometry" />
        </mxCell>
        <mxCell id="4f531_EbP1NzhC4_Dmcq-21" value="pre&lt;br&gt;Dec2" style="rounded=1;whiteSpace=wrap;html=1;" vertex="1" parent="1">
          <mxGeometry x="456" y="700" width="35" height="40" as="geometry" />
        </mxCell>
        <mxCell id="4f531_EbP1NzhC4_Dmcq-27" style="edgeStyle=orthogonalEdgeStyle;rounded=0;orthogonalLoop=1;jettySize=auto;html=1;entryX=0.5;entryY=1;entryDx=0;entryDy=0;" edge="1" parent="1" source="4f531_EbP1NzhC4_Dmcq-25" target="4f531_EbP1NzhC4_Dmcq-26">
          <mxGeometry relative="1" as="geometry" />
        </mxCell>
        <mxCell id="4f531_EbP1NzhC4_Dmcq-25" value="如果我是你" style="text;html=1;strokeColor=none;fillColor=none;align=center;verticalAlign=middle;whiteSpace=wrap;rounded=0;" vertex="1" parent="1">
          <mxGeometry x="100" y="753" width="120" height="30" as="geometry" />
        </mxCell>
        <mxCell id="4f531_EbP1NzhC4_Dmcq-28" style="edgeStyle=orthogonalEdgeStyle;rounded=0;orthogonalLoop=1;jettySize=auto;html=1;" edge="1" parent="1" source="4f531_EbP1NzhC4_Dmcq-26">
          <mxGeometry relative="1" as="geometry">
            <mxPoint x="160" y="633" as="targetPoint" />
          </mxGeometry>
        </mxCell>
        <mxCell id="4f531_EbP1NzhC4_Dmcq-26" value="Encoder" style="rounded=1;whiteSpace=wrap;html=1;" vertex="1" parent="1">
          <mxGeometry x="110" y="663" width="100" height="61" as="geometry" />
        </mxCell>
        <mxCell id="4f531_EbP1NzhC4_Dmcq-29" value="encoder_out" style="text;html=1;strokeColor=none;fillColor=none;align=center;verticalAlign=middle;whiteSpace=wrap;rounded=0;" vertex="1" parent="1">
          <mxGeometry x="115" y="603" width="90" height="30" as="geometry" />
        </mxCell>
        <mxCell id="4f531_EbP1NzhC4_Dmcq-36" style="edgeStyle=orthogonalEdgeStyle;rounded=0;orthogonalLoop=1;jettySize=auto;html=1;entryX=0.5;entryY=1;entryDx=0;entryDy=0;" edge="1" parent="1" source="4f531_EbP1NzhC4_Dmcq-30" target="4f531_EbP1NzhC4_Dmcq-33">
          <mxGeometry relative="1" as="geometry" />
        </mxCell>
        <mxCell id="4f531_EbP1NzhC4_Dmcq-37" style="edgeStyle=orthogonalEdgeStyle;rounded=0;orthogonalLoop=1;jettySize=auto;html=1;entryX=0.5;entryY=1;entryDx=0;entryDy=0;" edge="1" parent="1" source="4f531_EbP1NzhC4_Dmcq-30" target="4f531_EbP1NzhC4_Dmcq-32">
          <mxGeometry relative="1" as="geometry" />
        </mxCell>
        <mxCell id="4f531_EbP1NzhC4_Dmcq-38" style="edgeStyle=orthogonalEdgeStyle;rounded=0;orthogonalLoop=1;jettySize=auto;html=1;entryX=0.5;entryY=1;entryDx=0;entryDy=0;" edge="1" parent="1" source="4f531_EbP1NzhC4_Dmcq-30" target="4f531_EbP1NzhC4_Dmcq-21">
          <mxGeometry relative="1" as="geometry" />
        </mxCell>
        <mxCell id="4f531_EbP1NzhC4_Dmcq-30" value="I" style="text;html=1;strokeColor=none;fillColor=none;align=center;verticalAlign=middle;whiteSpace=wrap;rounded=0;" vertex="1" parent="1">
          <mxGeometry x="380" y="760" width="30" height="30" as="geometry" />
        </mxCell>
        <mxCell id="4f531_EbP1NzhC4_Dmcq-39" style="edgeStyle=orthogonalEdgeStyle;rounded=0;orthogonalLoop=1;jettySize=auto;html=1;entryX=0.5;entryY=1;entryDx=0;entryDy=0;" edge="1" parent="1" source="4f531_EbP1NzhC4_Dmcq-32" target="4f531_EbP1NzhC4_Dmcq-34">
          <mxGeometry relative="1" as="geometry" />
        </mxCell>
        <mxCell id="4f531_EbP1NzhC4_Dmcq-66" style="edgeStyle=orthogonalEdgeStyle;rounded=0;orthogonalLoop=1;jettySize=auto;html=1;entryX=1;entryY=0.5;entryDx=0;entryDy=0;fillColor=#f8cecc;strokeColor=#b85450;" edge="1" parent="1" source="4f531_EbP1NzhC4_Dmcq-32" target="4f531_EbP1NzhC4_Dmcq-29">
          <mxGeometry relative="1" as="geometry">
            <Array as="points">
              <mxPoint x="250" y="720" />
              <mxPoint x="250" y="618" />
            </Array>
          </mxGeometry>
        </mxCell>
        <mxCell id="4f531_EbP1NzhC4_Dmcq-32" value="pre&lt;br&gt;Dec1" style="rounded=1;whiteSpace=wrap;html=1;" vertex="1" parent="1">
          <mxGeometry x="414" y="700" width="35" height="40" as="geometry" />
        </mxCell>
        <mxCell id="4f531_EbP1NzhC4_Dmcq-42" style="edgeStyle=orthogonalEdgeStyle;rounded=0;orthogonalLoop=1;jettySize=auto;html=1;entryX=0.25;entryY=1;entryDx=0;entryDy=0;" edge="1" parent="1" source="4f531_EbP1NzhC4_Dmcq-33" target="4f531_EbP1NzhC4_Dmcq-4">
          <mxGeometry relative="1" as="geometry" />
        </mxCell>
        <mxCell id="4f531_EbP1NzhC4_Dmcq-33" value="I" style="text;html=1;strokeColor=none;fillColor=none;align=center;verticalAlign=middle;whiteSpace=wrap;rounded=0;" vertex="1" parent="1">
          <mxGeometry x="380" y="650" width="30" height="30" as="geometry" />
        </mxCell>
        <mxCell id="4f531_EbP1NzhC4_Dmcq-46" style="edgeStyle=orthogonalEdgeStyle;rounded=0;orthogonalLoop=1;jettySize=auto;html=1;" edge="1" parent="1" source="4f531_EbP1NzhC4_Dmcq-34">
          <mxGeometry relative="1" as="geometry">
            <mxPoint x="400" y="640" as="targetPoint" />
            <Array as="points">
              <mxPoint x="432" y="640" />
            </Array>
          </mxGeometry>
        </mxCell>
        <mxCell id="4f531_EbP1NzhC4_Dmcq-34" value="am?" style="text;html=1;strokeColor=none;fillColor=none;align=center;verticalAlign=middle;whiteSpace=wrap;rounded=0;" vertex="1" parent="1">
          <mxGeometry x="416.5" y="650" width="30" height="30" as="geometry" />
        </mxCell>
        <mxCell id="4f531_EbP1NzhC4_Dmcq-35" value="you?" style="text;html=1;strokeColor=none;fillColor=none;align=center;verticalAlign=middle;whiteSpace=wrap;rounded=0;" vertex="1" parent="1">
          <mxGeometry x="459" y="650" width="30" height="30" as="geometry" />
        </mxCell>
        <mxCell id="4f531_EbP1NzhC4_Dmcq-47" style="edgeStyle=orthogonalEdgeStyle;rounded=0;orthogonalLoop=1;jettySize=auto;html=1;" edge="1" parent="1">
          <mxGeometry relative="1" as="geometry">
            <mxPoint x="442" y="640" as="targetPoint" />
            <mxPoint x="473.5238095238094" y="650" as="sourcePoint" />
            <Array as="points">
              <mxPoint x="474" y="640" />
            </Array>
          </mxGeometry>
        </mxCell>
        <mxCell id="4f531_EbP1NzhC4_Dmcq-64" style="edgeStyle=orthogonalEdgeStyle;rounded=0;orthogonalLoop=1;jettySize=auto;html=1;" edge="1" parent="1" source="4f531_EbP1NzhC4_Dmcq-58" target="4f531_EbP1NzhC4_Dmcq-61">
          <mxGeometry relative="1" as="geometry" />
        </mxCell>
        <mxCell id="4f531_EbP1NzhC4_Dmcq-58" value="If" style="text;html=1;strokeColor=none;fillColor=none;align=center;verticalAlign=middle;whiteSpace=wrap;rounded=0;" vertex="1" parent="1">
          <mxGeometry x="324" y="760" width="30" height="30" as="geometry" />
        </mxCell>
        <mxCell id="4f531_EbP1NzhC4_Dmcq-63" style="edgeStyle=orthogonalEdgeStyle;rounded=0;orthogonalLoop=1;jettySize=auto;html=1;entryX=0.5;entryY=1;entryDx=0;entryDy=0;" edge="1" parent="1" source="4f531_EbP1NzhC4_Dmcq-59" target="4f531_EbP1NzhC4_Dmcq-60">
          <mxGeometry relative="1" as="geometry" />
        </mxCell>
        <mxCell id="4f531_EbP1NzhC4_Dmcq-59" value="&amp;lt;sos&amp;gt;" style="text;html=1;strokeColor=none;fillColor=none;align=center;verticalAlign=middle;whiteSpace=wrap;rounded=0;" vertex="1" parent="1">
          <mxGeometry x="270" y="760" width="30" height="30" as="geometry" />
        </mxCell>
        <mxCell id="4f531_EbP1NzhC4_Dmcq-60" value="If" style="text;html=1;strokeColor=none;fillColor=none;align=center;verticalAlign=middle;whiteSpace=wrap;rounded=0;" vertex="1" parent="1">
          <mxGeometry x="270" y="439.5" width="30" height="30" as="geometry" />
        </mxCell>
        <mxCell id="4f531_EbP1NzhC4_Dmcq-61" value="I" style="text;html=1;strokeColor=none;fillColor=none;align=center;verticalAlign=middle;whiteSpace=wrap;rounded=0;" vertex="1" parent="1">
          <mxGeometry x="324" y="439.5" width="30" height="30" as="geometry" />
        </mxCell>
        <mxCell id="4f531_EbP1NzhC4_Dmcq-68" value="&lt;font color=&quot;#ea6b66&quot;&gt;Encoder Attention&lt;/font&gt;" style="text;html=1;strokeColor=none;fillColor=none;align=center;verticalAlign=middle;whiteSpace=wrap;rounded=0;" vertex="1" parent="1">
          <mxGeometry x="190" y="561" width="60" height="30" as="geometry" />
        </mxCell>
        <mxCell id="4f531_EbP1NzhC4_Dmcq-73" value="" style="endArrow=none;html=1;rounded=0;fontColor=#EA6B66;fillColor=#d5e8d4;strokeColor=#82b366;" edge="1" parent="1">
          <mxGeometry width="50" height="50" relative="1" as="geometry">
            <mxPoint x="290" y="760" as="sourcePoint" />
            <mxPoint x="430" y="740" as="targetPoint" />
          </mxGeometry>
        </mxCell>
        <mxCell id="4f531_EbP1NzhC4_Dmcq-74" value="" style="endArrow=none;html=1;rounded=0;fontColor=#EA6B66;fillColor=#d5e8d4;strokeColor=#82b366;entryX=0.5;entryY=1;entryDx=0;entryDy=0;" edge="1" parent="1" target="4f531_EbP1NzhC4_Dmcq-32">
          <mxGeometry width="50" height="50" relative="1" as="geometry">
            <mxPoint x="350" y="760" as="sourcePoint" />
            <mxPoint x="440" y="750" as="targetPoint" />
          </mxGeometry>
        </mxCell>
        <mxCell id="4f531_EbP1NzhC4_Dmcq-75" value="&lt;font color=&quot;#00cc00&quot;&gt;Self Attention&lt;/font&gt;" style="text;html=1;strokeColor=none;fillColor=none;align=center;verticalAlign=middle;whiteSpace=wrap;rounded=0;" vertex="1" parent="1">
          <mxGeometry x="284" y="724" width="60" height="30" as="geometry" />
        </mxCell>
        <mxCell id="4f531_EbP1NzhC4_Dmcq-77" value="" style="endArrow=none;html=1;rounded=0;fontColor=#EA6B66;fillColor=#d5e8d4;strokeColor=#82b366;entryX=0.5;entryY=1;entryDx=0;entryDy=0;" edge="1" parent="1" target="4f531_EbP1NzhC4_Dmcq-41">
          <mxGeometry width="50" height="50" relative="1" as="geometry">
            <mxPoint x="289.0000000000001" y="595" as="sourcePoint" />
            <mxPoint x="429" y="575" as="targetPoint" />
          </mxGeometry>
        </mxCell>
        <mxCell id="4f531_EbP1NzhC4_Dmcq-78" value="" style="endArrow=none;html=1;rounded=0;fontColor=#EA6B66;fillColor=#d5e8d4;strokeColor=#82b366;" edge="1" parent="1">
          <mxGeometry width="50" height="50" relative="1" as="geometry">
            <mxPoint x="349" y="595" as="sourcePoint" />
            <mxPoint x="410" y="560" as="targetPoint" />
          </mxGeometry>
        </mxCell>
        <mxCell id="4f531_EbP1NzhC4_Dmcq-79" value="&lt;font color=&quot;#00cc00&quot;&gt;Self Attention&lt;/font&gt;" style="text;html=1;strokeColor=none;fillColor=none;align=center;verticalAlign=middle;whiteSpace=wrap;rounded=0;" vertex="1" parent="1">
          <mxGeometry x="283" y="553" width="60" height="30" as="geometry" />
        </mxCell>
      </root>
    </mxGraphModel>
  </diagram>
</mxfile>
